<?xml version="1.0" encoding="utf-8"?>
<!-- Generator: Adobe Illustrator 27.0.0, SVG Export Plug-In . SVG Version: 6.00 Build 0)  -->
<svg version="1.1" id="Layer_1" xmlns="http://www.w3.org/2000/svg" xmlns:xlink="http://www.w3.org/1999/xlink" x="0px" y="0px"
	 viewBox="0 0 357.17 85.04" style="enable-background:new 0 0 357.17 85.04;" xml:space="preserve">
<style type="text/css">
	.st0{fill-rule:evenodd;clip-rule:evenodd;fill:#010101;}
	.st1{display:none;fill-rule:evenodd;clip-rule:evenodd;fill:#ED1C24;}
</style>
<path id="path" class="st0" d="M198.78,21.72c-0.93,0-1.6-0.88-1.35-1.78l1.58-5.66c0.51-1.82,2.16-3.08,4.05-3.08h11.61
	c1.38,0,2.39,1.31,2.03,2.65l-3.65,13.63c-0.24,0.88,0.42,1.75,1.33,1.77l27.7,0.48c2.74,0.05,4.7,2.65,3.99,5.3l-6.89,25.7
	c-0.24,0.89,0.43,1.77,1.35,1.77h8.11c0.95,0,1.78-0.64,2.03-1.55l8.19-30.21c0.25-0.92,1.08-1.55,2.03-1.55l7.35,0.01
	c0.92,0,1.59,0.87,1.36,1.75l-0.37,1.41l0,0c1.74-1.78,4.13-2.78,6.62-2.78l14.85,0.02c3.69,0,6.37,3.5,5.41,7.06l-2.68,10.02
	c-0.25,0.92-1.08,1.56-2.03,1.56h-7.1c-0.92,0-1.59-0.87-1.35-1.77l1.33-4.96c0.24-0.89-0.43-1.77-1.35-1.77h-10.3
	c-3.17,0-5.95,2.13-6.77,5.2l-4.23,15.79c-0.24,0.89,0.43,1.77,1.35,1.77h31.94c0.96,0,1.79-0.65,2.04-1.57l7.17-27.43
	c0.65-2.47,2.88-4.19,5.43-4.19l33.91,0c2.77,0,4.78,2.63,4.06,5.3l-9.17,34.1c-0.66,2.45-2.88,4.15-5.42,4.15H170.52
	c-1.84,0-3.19-1.75-2.71-3.53l7.43-27.74c0.24-0.89-0.43-1.77-1.35-1.77h-8.13c-0.95,0-1.79,0.64-2.03,1.56l-7.79,29.06
	c-0.25,0.92-1.08,1.56-2.03,1.56h-7.45c-0.92,0-1.59-0.87-1.35-1.77l7.7-28.73c0.24-0.89-0.43-1.77-1.35-1.77h-8.11
	c-0.95,0-1.79,0.64-2.03,1.56l-7.62,28.44c-0.49,1.84-2.16,3.12-4.06,3.12H13.51c-2.07,0-3.59-1.97-3.05-3.97l15.09-56.33
	C25.8,11.64,26.64,11,27.59,11h7.45c0.92,0,1.59,0.87,1.35,1.77L23.58,60.58c-0.24,0.89,0.43,1.77,1.35,1.77h21.43
	c0.95,0,1.79-0.64,2.03-1.56l2.42-9.03c0.25-0.92,1.08-1.56,2.03-1.56h7.45c0.92,0,1.59,0.87,1.35,1.77l-2.31,8.62
	c-0.24,0.89,0.43,1.77,1.35,1.77h3.92c0.95,0,1.79-0.64,2.03-1.56l2.56-9.57c0.65-2.42,2.82-4.11,5.32-4.16l31.62-0.55
	c0.47-0.01,0.88-0.33,1-0.78l1.12-4.17c0.24-0.89-0.44-1.77-1.36-1.77l-30.11,0.18c-1.39,0.01-2.4-1.3-2.05-2.64l1.35-5.08
	c0.32-1.22,1.43-2.08,2.69-2.09l37.95-0.23c2.78-0.02,4.81,2.61,4.09,5.29l-6.8,25.42c-0.24,0.89,0.43,1.76,1.35,1.76h7.77
	c0.95,0,1.79-0.64,2.03-1.56l7.36-27.47c0.66-2.45,2.88-4.16,5.42-4.16h46c2.77,0,4.78,2.62,4.06,5.3L181,60.72
	c-0.24,0.89,0.43,1.77,1.35,1.77h8.81c0.95,0,1.79-0.64,2.03-1.56l10.03-37.44c0.24-0.89-0.43-1.77-1.35-1.77H198.78z M309.27,62.49
	c-0.92,0-1.59-0.88-1.35-1.77l5.2-19.35c0.25-0.92,1.08-1.56,2.03-1.56l18.28,0c0.92,0,1.59,0.87,1.35,1.77l-5.18,19.35
	c-0.25,0.92-1.08,1.56-2.03,1.56H309.27z M78.4,57.57c0.24-0.91,1.06-1.54,2-1.56l22.24-0.38c0.93-0.02,1.62,0.86,1.38,1.77
	l-0.91,3.38c-0.25,0.92-1.08,1.56-2.03,1.56H78.94c-0.92,0-1.59-0.88-1.35-1.77L78.4,57.57z M205.5,62.49
	c-0.92,0-1.59-0.87-1.35-1.77l5.2-19.4c0.25-0.93,1.1-1.58,2.07-1.56l20.6,0.36c0.91,0.02,1.57,0.88,1.33,1.77l-5.1,19.04
	c-0.25,0.92-1.08,1.56-2.03,1.56H205.5z"/>
<circle id="_x31__x2F_8_deep_bore_00000080202555772918593920000004311852930877953928_" class="st1" cx="302.05" cy="67.75" r="4.25"/>
<circle id="_x31__x2F_8_deep_bore" class="st1" cx="52.6" cy="67.75" r="4.25"/>
</svg>
