<svg width="845" height="196" viewBox="0 0 845 196" fill="none" xmlns="http://www.w3.org/2000/svg">
<path d="M108.72 162.92H102.88L89.28 144.034V162.84H84V134.92H89.8401L103.44 153.806V135H108.72V162.92Z" fill="#004B8A"/>
<path d="M655.28 163H661.16L671.52 135H666L658.52 155.18H658.36L650.88 135H645L655.28 163Z" fill="#004B8A"/>
<path d="M391.52 163H396.8V135H388.88L381.64 152.92H381.48L374.16 135H366V163H371.28V141.76H371.44L379.16 163H383.64L391.36 141.76H391.52V163Z" fill="#004B8A"/>
<path d="M167.47 24.5669L175.448 46.6387H159.492L167.47 24.5669Z" fill="#004B8A"/>
<path d="M367.448 46.6387L359.47 24.5669L351.492 46.6387H367.448Z" fill="#004B8A"/>
<path d="M502.721 59.0459C502.721 56.3818 501.278 54.4209 498.799 54.4209C496.32 54.4209 494.803 56.3447 494.803 59.0459C494.803 61.7837 496.32 63.708 498.799 63.708C501.278 63.708 502.721 61.7471 502.721 59.0459Z" fill="#004B8A"/>
<path d="M536.806 48.6489H536.658L533.772 57.4917H539.655L536.806 48.6489Z" fill="#004B8A"/>
<path d="M723.418 46.9839C727.636 46.9839 730.781 50.3511 730.781 55.0498C730.781 59.749 727.636 63.1157 723.418 63.1157C719.237 63.1157 716.092 59.749 716.092 55.0498C716.092 50.3511 719.237 46.9839 723.418 46.9839Z" fill="#004B8A"/>
<path d="M664.636 48.6489H664.784L667.633 57.4917H661.75L664.636 48.6489Z" fill="#004B8A"/>
<path d="M138.629 85.46H138.741L141.345 92.0195H136.081L138.629 85.46Z" fill="#004B8A"/>
<path d="M306.123 83.8159C308.281 83.8159 309.12 85.1318 309.12 86.3638C309.12 87.7075 308 88.9678 306.151 88.9678H303.491V83.8159H306.123Z" fill="#004B8A"/>
<path d="M331.171 85.46H331.283L333.887 92.0195H328.623L331.171 85.46Z" fill="#004B8A"/>
<path d="M539.436 83.4238C542.936 83.4238 545.595 86.1958 545.595 90.2002C545.595 94.2041 542.936 96.9761 539.436 96.9761C535.964 96.9761 533.303 94.2041 533.303 90.2002C533.303 86.1958 535.964 83.4238 539.436 83.4238Z" fill="#004B8A"/>
<path d="M600.286 90.2002C600.286 86.1958 597.626 83.4238 594.126 83.4238C590.654 83.4238 587.994 86.1958 587.994 90.2002C587.994 94.2041 590.654 96.9761 594.126 96.9761C597.626 96.9761 600.286 94.2041 600.286 90.2002Z" fill="#004B8A"/>
<path d="M730.036 92H726.073L730.036 86.127V92Z" fill="#004B8A"/>
<path d="M649.802 86.6797C649.802 84.9624 651.052 83.5703 652.593 83.5703C654.135 83.5703 655.385 84.9624 655.385 86.6797C655.385 88.397 654.135 89.7891 652.593 89.7891C651.052 89.7891 649.802 88.397 649.802 86.6797Z" fill="#004B8A"/>
<path d="M703.469 93.6836C703.469 95.4009 702.219 96.793 700.677 96.793C699.136 96.793 697.886 95.4009 697.886 93.6836C697.886 91.9663 699.136 90.5742 700.677 90.5742C702.219 90.5742 703.469 91.9663 703.469 93.6836Z" fill="#004B8A"/>
<path fill-rule="evenodd" clip-rule="evenodd" d="M98 0C43.876 0 0 43.876 0 98C0 152.124 43.876 196 98 196H747C801.124 196 845 152.124 845 98C845 43.876 801.124 0 747 0H98ZM334 112H64V186H334V112ZM628 112H781V186H628V112ZM616 112H346V186H616V112ZM89 20V10H137V20H120V32H137V42H120V68H96V42H89V32H96V20H89ZM151.771 68L155.877 56.6387H179.062L183.168 68H207.277L186.313 10H162.205L148.962 46.6387H137V56.6387H145.347L141.241 68H151.771ZM211 20V10H259V20H242.108V32H259V42H242.108V58H259V68H211V58H218V42H211V32H218V20H211ZM265 20V10H288.5L294.5 22.5L301 10H324V68H300V41L290.5 60.5L282 43.5V68H272V20H265ZM347.877 56.6387L343.771 68H333.241L337.347 56.6387H329V46.6387H340.962L354.205 10H378.313L399.277 68H375.168L371.062 56.6387H347.877ZM452.184 61.6357C453.035 65.854 456.957 68.5547 462.026 68.5547C467.872 68.5547 471.683 65.188 471.683 60.1191C471.683 54.2476 467.318 53.1401 463.738 52.2319C461.25 51.6006 459.14 51.0654 459.14 49.0928C459.14 47.5391 460.324 46.5771 462.211 46.5771C464.209 46.5771 465.541 47.687 465.948 49.6108L471.609 48.6118C470.832 44.3198 467.317 41.5449 462.359 41.5449C456.92 41.5449 453.183 44.875 453.183 49.6479C453.183 55.4917 457.494 56.6162 461.054 57.5444C463.557 58.1973 465.689 58.7534 465.689 60.7852C465.689 62.4497 464.357 63.5601 462.248 63.5601C460.028 63.5601 458.252 62.3018 457.845 60.4521L452.184 61.6357ZM474.938 68V62.5312L480.704 62.5684V68H474.938ZM508.345 59.0459C508.345 64.8179 504.608 68.5547 499.983 68.5547C497.504 68.5547 495.765 67.4077 495.025 66.002V73.3999H489.475V50.1289H494.581V50.4229H494.692C497 49.5 498.244 49.5737 500.094 49.5737C504.756 49.5737 508.345 53.3481 508.345 59.0459ZM549.386 68H543.059L541.357 62.709H532.07L530.331 68H524.152L533.55 42.1001H540.025L549.386 68ZM511.448 67.9629V62.4941L517.215 62.5312V67.9629H511.448ZM551.463 68V62.5312L557.23 62.5684V68H551.463ZM723.418 68.5547C731.114 68.5547 736.775 62.8198 736.775 55.0498C736.775 47.2798 731.114 41.5449 723.418 41.5449C715.759 41.5449 710.098 47.2798 710.098 55.0498C710.098 62.8198 715.759 68.5547 723.418 68.5547ZM611.153 68H605.307V49.4629H605.159L598.832 68H593.874L587.547 49.4629H587.399V68H581.553V42.1001H590.655L596.464 57.083H596.612L602.421 42.1001H611.153V68ZM624.528 68V42.1001H618.682V68H624.528ZM637.881 42.1001H632.035V68H648.278V62.6719H637.881V42.1001ZM671.037 68H677.364L668.003 42.1001H661.528L652.13 68H658.309L660.048 62.709H669.335L671.037 68ZM698.422 68H704.75V42.1001H698.903V58.75L687.729 42.1001H681.402V68H687.248V51.3501L698.422 68ZM144.005 99.9995H148.009L140.785 80.3438H136.669L129.445 99.9995H133.365L134.933 95.3516H142.437L144.005 99.9995ZM103.588 100.056H107.704L114.956 80.3999H111.092L105.856 95.2676H105.744L100.508 80.3999H96.3921L103.588 100.056ZM124.067 80.3999V99.9995H120.372V80.3999H124.067ZM182.907 100.056H187.023L194.275 80.3999H190.411L185.175 95.2676H185.063L179.827 80.3999H175.711L182.907 100.056ZM214.398 83.7876V80.3999H202.21V99.9995H214.398V96.6118H205.906V91.8516H214.398V88.4639H205.906V83.7876H214.398ZM237.754 100.056H241.842V80.3999H238.146V94.3438L228.626 80.3438H224.538V99.9995H228.234V86.0557L237.754 100.056ZM265.149 83.8159V80.3999H250.057V83.8159H255.769V99.9995H259.465V83.8159H265.149ZM273.126 91.7676C273.126 97.48 276.648 100.42 281.66 100.42C286.728 100.42 290.254 97.48 290.254 91.7397V80.3999H286.586V91.46C286.586 95.0439 284.46 96.9478 281.66 96.9478C278.916 96.9478 276.794 95.0439 276.794 91.4316V80.3999H273.126V91.7676ZM305.367 91.9917L310.183 99.9995H314.495L309.287 91.6279C311.863 90.8716 312.96 88.8838 312.96 86.2798C312.96 82.2197 310.239 80.3999 306.739 80.3999H299.795V99.9995H303.491V91.9917H305.367ZM336.547 99.9995H340.551L333.327 80.3438H329.211L321.987 99.9995H325.907L327.475 95.3516H334.979L336.547 99.9995ZM361.954 94.4375C361.954 97.9375 364.67 100.5 368.142 100.5C372.454 100.5 375.125 97.7876 375.125 93.6719C375.125 89.8359 372.75 87 369.094 87C367.134 87 365.958 87.5957 365.314 88.4355V83.7036H373.47V80.3999H361.954V91.8516H365.062C365.566 90.7319 366.742 89.9688 368.142 89.9688C370.27 89.9688 371.726 91.5439 371.726 93.6719C371.726 95.6597 370.354 97.1719 368.226 97.1719C366.63 97.1719 365.25 95.8711 365.062 94.4375H361.954ZM539.436 100.42C545.12 100.42 549.404 96.1641 549.404 90.2002C549.404 84.2358 545.12 79.98 539.436 79.98C533.78 79.98 529.496 84.2358 529.496 90.2002C529.496 96.1641 533.78 100.42 539.436 100.42ZM436.764 80.3999V83.8159H431.08V100H427.384V83.8159H421.672V80.3999H436.764ZM457.154 83.7881V80.3999H444.966V100H457.154V96.6118H448.662V91.8521H457V88.4639H448.662V83.7881H457.154ZM470.99 80.3999H467.293V100H479.333V96.6118H470.99V80.3999ZM499.731 83.7881V80.3999H487.543V100H499.731V96.6118H491.239V91.8521H499.731V88.4639H491.239V83.7881H499.731ZM521.807 83.7881V80.3999H509.871V100H513.567V92.0479H521.807V88.6602H513.567V83.7881H521.807ZM575.44 100.056H571.352L561.832 86.0562V100H558.136V80.3438H562.224L571.744 94.3438V80.3999H575.44V100.056ZM604.094 90.2002C604.094 96.1641 599.81 100.42 594.126 100.42C588.47 100.42 584.186 96.1641 584.186 90.2002C584.186 84.2358 588.47 79.98 594.126 79.98C599.81 79.98 604.094 84.2358 604.094 90.2002ZM636.484 84.209C636.368 84.0698 636.239 83.9482 636.098 83.8438C636.004 83.7744 635.904 83.7129 635.799 83.6587L635.728 83.6235L635.647 83.5874C635.612 83.5728 635.576 83.5586 635.54 83.5454C635.386 83.4888 635.221 83.4463 635.047 83.418C634.871 83.3892 634.685 83.375 634.488 83.375C633.303 83.375 632.497 83.8169 632.068 84.7012C631.822 85.2114 631.677 86.0229 631.631 87.1348H627.844C627.907 85.4487 628.213 84.0859 628.76 83.0469C629.799 81.0688 631.645 80.0801 634.297 80.0801C636.393 80.0801 638.061 80.6636 639.301 81.8301C640.54 82.9878 641.16 84.5234 641.16 86.4375C641.16 87.9048 640.723 89.2085 639.848 90.3477C639.273 91.104 638.33 91.9473 637.018 92.877L635.459 93.9844C634.484 94.6772 633.814 95.1782 633.449 95.4883C633.294 95.6235 633.149 95.7686 633.015 95.9233C632.842 96.1226 632.686 96.3374 632.547 96.5684H641.201V100H627.625C627.661 98.5781 627.967 97.2793 628.541 96.1035C629.097 94.7817 630.409 93.3828 632.479 91.9062C633.323 91.3022 634.027 90.7788 634.591 90.3359C635.227 89.8364 635.685 89.4395 635.965 89.1445C636.776 88.2788 637.182 87.3306 637.182 86.3008C637.182 85.4624 636.949 84.7651 636.484 84.209ZM669.03 95.9258H664.887V100H669.03V95.9258ZM678.83 86.4648C678.812 85.4897 679.022 84.7104 679.459 84.127C679.888 83.5435 680.562 83.252 681.483 83.252C681.876 83.252 682.226 83.3091 682.532 83.4233C682.644 83.4648 682.75 83.5142 682.85 83.5713C683.034 83.6763 683.198 83.8066 683.342 83.9629C683.789 84.437 684.012 85.0522 684.012 85.8086C684.012 86.9751 683.579 87.75 682.713 88.1328C682.212 88.3608 681.328 88.4839 680.061 88.502V91.291C681.355 91.291 682.303 91.4141 682.905 91.6602C683.962 92.0977 684.49 92.9683 684.49 94.2715C684.49 95.2559 684.203 96.0122 683.629 96.541C683.064 97.0605 682.399 97.3203 681.633 97.3203C680.384 97.3203 679.523 96.8418 679.049 95.8848C678.794 95.3652 678.666 94.709 678.666 93.916H674.838C674.902 95.4927 675.221 96.769 675.795 97.7441C676.889 99.5762 678.839 100.492 681.647 100.492C683.925 100.492 685.644 99.8589 686.801 98.5918C687.968 97.3159 688.551 95.8394 688.551 94.1621C688.551 92.5669 688.054 91.3091 687.061 90.3887C686.396 89.7778 685.885 89.4727 685.53 89.4727C686.003 89.2905 686.459 88.9487 686.897 88.4473C687.589 87.645 687.936 86.6606 687.936 85.4941C687.936 83.8442 687.353 82.5317 686.186 81.5566C685.028 80.5723 683.501 80.0801 681.606 80.0801C680.585 80.0801 679.724 80.2031 679.022 80.4492C678.927 80.4824 678.833 80.5181 678.742 80.5557C678.605 80.6113 678.472 80.6714 678.343 80.7363C677.921 80.9482 677.541 81.208 677.203 81.5156C676.52 82.1719 676.019 82.8872 675.699 83.6621C675.598 83.9609 675.511 84.2651 675.44 84.5752C675.3 85.1831 675.218 85.813 675.194 86.4648H678.83ZM716.629 95.9258H712.487V100H716.629V95.9258ZM735.062 95.7344V92H733.85V80.2988H729.475L722.188 92.3301V95.7344H730.036V100H733.85V95.7344H735.062ZM745.559 100H749.551V80.1758H745.969C745.969 81.8218 744.635 83.1562 742.989 83.1562H741.897V86.3281H745.559V100ZM395 90C394.448 90 394 90.4478 394 91V92C394 92.5522 394.448 93 395 93H403C403.552 93 404 92.5522 404 92V91C404 90.4478 403.552 90 403 90H395ZM652.231 93.2988C650.472 93.2988 649.032 92.7017 647.911 91.5078C646.781 90.314 646.215 88.7871 646.215 86.9277C646.215 85.0776 646.767 83.4458 647.87 82.0332C648.972 80.6206 650.686 79.9141 653.01 79.9141C655.508 79.9141 657.349 80.9575 658.534 83.0449C659.454 84.6763 659.915 86.7817 659.915 89.3613C659.915 90.8745 659.851 92.105 659.723 93.0527C659.495 94.7388 659.053 96.1426 658.397 97.2637C657.832 98.2207 657.094 98.9907 656.182 99.5742C655.261 100.158 654.163 100.449 652.887 100.449C651.046 100.449 649.579 99.9751 648.485 99.0273C647.772 98.4092 646.927 97.2637 646.927 97.2637L649.786 95.3086C649.786 95.3086 650.037 95.8989 650.625 96.3281C650.736 96.4092 650.842 96.4814 650.945 96.5454C651.032 96.5996 651.117 96.6479 651.201 96.6914C651.265 96.7241 651.329 96.7544 651.392 96.7812L651.495 96.8228C651.876 96.9683 652.259 97.0156 652.75 97.0156C654.017 97.0156 655.15 96.4062 655.688 94.9844C656.182 93.9219 656.182 93.0527 656.1 91.6445C655.98 91.7871 655.855 91.9204 655.726 92.0439C655.646 92.1201 655.564 92.1929 655.48 92.2617C655.154 92.5308 654.8 92.7441 654.418 92.9023C653.781 93.1665 653.051 93.2988 652.231 93.2988ZM705.36 88.8555C704.239 87.6616 702.799 87.0645 701.04 87.0645C700.531 87.0645 700.057 87.1152 699.618 87.2168C699.35 87.2793 699.094 87.3604 698.852 87.4609C698.214 87.7251 697.654 88.1445 697.17 88.7188C697.088 87.3105 697.088 86.4414 697.583 85.3789C698.121 83.957 699.253 83.3477 700.521 83.3477C701.368 83.3477 701.896 83.4883 702.646 84.0352C702.873 84.2012 703.05 84.3911 703.181 84.5615C703.39 84.8325 703.484 85.0547 703.484 85.0547L706.344 83.0996C706.344 83.0996 706.225 82.938 706.038 82.7036C705.917 82.5518 705.769 82.3696 705.605 82.1812C705.349 81.8843 705.058 81.5718 704.786 81.3359C703.692 80.3882 702.224 79.9141 700.383 79.9141C699.107 79.9141 698.009 80.2056 697.088 80.7891C696.848 80.9429 696.62 81.1099 696.404 81.2896C696.275 81.396 696.151 81.5073 696.031 81.623C695.823 81.8247 695.627 82.04 695.445 82.269C695.238 82.5283 695.048 82.8052 694.874 83.0996C694.217 84.2207 693.775 85.6245 693.547 87.3105C693.42 88.2583 693.356 89.4888 693.356 91.002C693.356 93.5815 693.816 95.687 694.737 97.3184C695.922 99.4058 697.763 100.449 700.26 100.449C702.584 100.449 704.298 99.7427 705.401 98.3301C706.504 96.9175 707.055 95.2856 707.055 93.4355C707.055 91.5762 706.49 90.0493 705.36 88.8555Z" fill="#004B8A"/>
</svg>
